<svg width="16" height="16" viewBox="0 0 16 16" fill="none" xmlns="http://www.w3.org/2000/svg">
<rect width="16" height="16" rx="2" fill="#5D5D5D"/>
<path d="M13.2929 4.39911C13.6834 4.00858 13.6834 3.37542 13.2929 2.98489L13.0151 2.70711C12.6246 2.31658 11.9914 2.31658 11.6009 2.70711L8.70711 5.60089C8.31658 5.99142 7.68342 5.99142 7.29289 5.60089L4.39911 2.70711C4.00858 2.31658 3.37542 2.31658 2.98489 2.70711L2.70711 2.98489C2.31658 3.37542 2.31658 4.00858 2.70711 4.39911L5.60089 7.29289C5.99142 7.68342 5.99142 8.31658 5.60089 8.70711L2.70711 11.6009C2.31658 11.9914 2.31658 12.6246 2.70711 13.0151L2.98489 13.2929C3.37542 13.6834 4.00858 13.6834 4.39911 13.2929L7.29289 10.3991C7.68342 10.0086 8.31658 10.0086 8.70711 10.3991L11.6009 13.2929C11.9914 13.6834 12.6246 13.6834 13.0151 13.2929L13.2929 13.0151C13.6834 12.6246 13.6834 11.9914 13.2929 11.6009L10.3991 8.70711C10.0086 8.31658 10.0086 7.68342 10.3991 7.29289L13.2929 4.39911Z" fill="black" fill-opacity="0.5"/>
</svg>
