<svg width="16" height="16" viewBox="0 0 16 16" fill="none" xmlns="http://www.w3.org/2000/svg">
<path d="M3 4.4C2.44771 4.4 2 4.84772 2 5.4V13C2 13.5523 2.44772 14 3 14H10.6C11.1523 14 11.6 13.5523 11.6 13V5.4C11.6 4.84772 11.1523 4.4 10.6 4.4H3ZM4.4 7.8C4.4 7.24772 4.84772 6.8 5.4 6.8H8.2C8.75229 6.8 9.2 7.24772 9.2 7.8V10.6C9.2 11.1523 8.75229 11.6 8.2 11.6H5.4C4.84771 11.6 4.4 11.1523 4.4 10.6V7.8Z" fill="white"/>
<path d="M4.99999 2C4.66862 2 4.39999 2.26863 4.39999 2.6C4.39999 2.93137 4.66862 3.2 4.99999 3.2H11.8C12.3523 3.2 12.8 3.64772 12.8 4.2V11C12.8 11.3314 13.0686 11.6 13.4 11.6C13.7314 11.6 14 11.3314 14 11V3C14 2.44771 13.5523 2 13 2H4.99999Z" fill="white"/>
</svg>
