<svg width="16" height="16" viewBox="0 0 16 16" fill="none" xmlns="http://www.w3.org/2000/svg">
<path opacity="0.01" d="M9.846 7.846C9.93105 7.76095 9.93105 7.62305 9.846 7.538L8.462 6.154C8.37695 6.06895 8.23905 6.06895 8.154 6.154V6.154C8.06895 6.23905 7.93105 6.23905 7.846 6.154V6.154C7.76095 6.06895 7.62305 6.06895 7.538 6.154L6.154 7.538C6.06895 7.62305 6.06895 7.76095 6.154 7.846V7.846C6.23905 7.93105 6.23905 8.06895 6.154 8.154V8.154C6.06895 8.23905 6.06895 8.37695 6.154 8.462L7.538 9.846C7.62305 9.93105 7.76095 9.93105 7.846 9.846V9.846C7.93105 9.76095 8.06895 9.76095 8.154 9.846V9.846C8.23905 9.93105 8.37695 9.93105 8.462 9.846L9.846 8.462C9.93105 8.37695 9.93105 8.23905 9.846 8.154V8.154C9.76095 8.06895 9.76095 7.93105 9.846 7.846V7.846Z" fill="#5D5D5D"/>
</svg>
